<svg id="组_8" data-name="组 8" xmlns="http://www.w3.org/2000/svg" width="182.879" height="47.76" viewBox="0 0 182.879 47.76">
  <defs>
    <style>
      .cls-1 {
        fill: #fff;
      }
    </style>
  </defs>
  <path id="路径_7" data-name="路径 7" class="cls-1" d="M27.686,25.249,16.367,45.177A7.857,7.857,0,0,1,1.7,41.251V28H9.273V42.288h0l9.665-17.038L9.293,8.211V22.5H1.72V9.247A7.857,7.857,0,0,1,16.387,5.321Z" transform="translate(-1.7 -1.369)"/>
  <path id="路径_8" data-name="路径 8" class="cls-1" d="M129.934,27.979h7.573V41.231a7.857,7.857,0,0,1-14.667,3.926l-5.54-9.765,4.364-7.692,8.25,14.547h0l.02-14.268ZM122.84,5.321l-5.54,9.765,4.364,7.692,8.25-14.547h0V22.519h7.573V9.247A7.843,7.843,0,0,0,122.84,5.321Z" transform="translate(-94.263 -1.369)"/>
  <path id="路径_9" data-name="路径 9" class="cls-1" d="M285.2,44.693a2.55,2.55,0,0,1-3.348.1,2.639,2.639,0,0,1-.777-1.634v-.02h.02l1.156-.259v.02a2.093,2.093,0,0,0,.259.9,1.243,1.243,0,0,0,1.853.12,1.27,1.27,0,0,0,.339-.877,1.286,1.286,0,0,0-.06-.4,1.107,1.107,0,0,0-.179-.339,1.457,1.457,0,0,0-.319-.279,2.7,2.7,0,0,0-.478-.259l-.717-.3c-1.016-.438-1.554-1.076-1.554-1.913a1.8,1.8,0,0,1,.658-1.415,2.391,2.391,0,0,1,1.614-.578,2.241,2.241,0,0,1,2.033,1.275v.02h0l-.937.558v-.02a1.655,1.655,0,0,0-.478-.578,1.133,1.133,0,0,0-.618-.159,1.181,1.181,0,0,0-.777.259.812.812,0,0,0-.3.638c0,.359.279.658.8.877l.737.3a3.192,3.192,0,0,1,1.335.9,2.077,2.077,0,0,1,.418,1.315A2.327,2.327,0,0,1,285.2,44.693Zm7.672.538V37.739h-1.156v2.929h-3.208V37.739h-1.156v7.493h1.156V41.744h3.208v3.487Zm6.078-6.417V37.739H294.81v7.493h4.145V44.155h-2.989V41.684h2.89V40.608h-2.909V38.835h3.009Zm-.379,18.932h4.145V56.67h-2.989V54.2h2.91V53.123h-2.91V51.349h2.989V50.273h-4.145Zm15.4-13.611h-3.587l3.667-6.4v-.02H309.1v1.076h3.069l-3.667,6.4v.02h5.48Zm6.955,1.1V37.739H319.78v2.929h-3.208V37.739h-1.156v7.493h1.156V41.744h3.208v3.487Zm6.058-6.417V37.739h-4.145v7.493h4.145V44.155H324V41.684h2.909V40.608H324V38.835h2.989Zm16.48,6.277a4.607,4.607,0,0,1-1.275.139h-1.853V37.739h1.3a4.806,4.806,0,0,1,1.2.12,1.837,1.837,0,0,1,.757.4,2.021,2.021,0,0,1,.5.717,2.25,2.25,0,0,1,.2.877,1.774,1.774,0,0,1-.618,1.355,1.866,1.866,0,0,1,.937.717,2,2,0,0,1,.359,1.176,2.112,2.112,0,0,1-.618,1.495A2.169,2.169,0,0,1,343.474,45.092Zm-2.033-4.145h.518a1.383,1.383,0,0,0,.937-.279,1.054,1.054,0,0,0,.3-.817,1.037,1.037,0,0,0-.3-.8,1.341,1.341,0,0,0-.9-.279h-.558Zm1.993,2.89a1.062,1.062,0,0,0,.379-.817,1,1,0,0,0-.359-.8A1.865,1.865,0,0,0,342.2,41.9h-.737v2.232h.857A1.736,1.736,0,0,0,343.434,43.837ZM357.1,37.6a3.72,3.72,0,0,1,2.75,1.156,3.849,3.849,0,0,1,0,5.5,3.881,3.881,0,0,1-2.81,1.136,3.963,3.963,0,0,1-2.611-1,3.716,3.716,0,0,1-1.275-2.909A3.982,3.982,0,0,1,357.1,37.6Zm1.933,1.893a2.6,2.6,0,0,0-1.953-.8,2.79,2.79,0,0,0-.04,5.58,2.755,2.755,0,0,0,1.973-.8,2.916,2.916,0,0,0,.02-3.986Zm-7.473,5.739-.777-1.813H347.6l-.837,1.813h-1.236v-.02l3.547-7.632h.319l3.428,7.632-1.255.02Zm-1.255-2.89-1.1-2.511-1.156,2.511Zm16.261,1.076h-3.189l-.837,1.813h-1.236v-.02l3.547-7.632h.319l3.428,7.632h-1.255Zm-.478-1.076L365,39.831l-1.156,2.511Zm9.027.558-5.082-5.321h-.359v7.632h1.156V39.99l5.122,5.361h.319V37.719H375.12Zm-74.192-5.3h-.379v7.632H301.7V40.01l5.122,5.361h.319V37.739h-1.156V42.92Zm28.836,2.411,5.121,5.361h.319V37.739h-1.156V42.92L328.966,37.6h-.359v7.632h1.156ZM281.916,57.766h1.156V50.253h-1.156Zm10.841-6.417h1.714v6.417h1.176V51.349h1.714v-1.1h-4.583v1.1Zm110.78-1.136v1.1h1.714v6.417h1.176V51.31h1.714V50.233l-4.6-.02Zm-96.73,4.344,2.332,3.188h-1.415l-2.132-3.069h-.179v3.069h-1.156V50.233h1.335a3.279,3.279,0,0,1,2.152.558,2.117,2.117,0,0,1,.737,1.654,2.158,2.158,0,0,1-.458,1.375A2.094,2.094,0,0,1,306.806,54.558Zm-1.056-.9a1.955,1.955,0,0,0,1.2-.3,1.107,1.107,0,0,0,.4-.917q0-1.136-1.554-1.136h-.4v2.352ZM325.28,51.31h1.714v6.437h1.156V51.31h1.714V50.233H325.28V51.31Zm5.739,6.457h1.156V50.253h-1.156Zm29.374-7.553h-1.156v7.513H362.7V56.65h-2.312V50.213Zm14.129,7.553h1.156V50.253h-1.156Zm5.64-3.208,2.332,3.188h-1.415l-2.132-3.069h-.179v3.069h-1.156V50.233h1.335a3.279,3.279,0,0,1,2.152.558,2.117,2.117,0,0,1,.737,1.654,2.158,2.158,0,0,1-.458,1.375A2.094,2.094,0,0,1,380.161,54.558Zm-1.076-.9a1.955,1.955,0,0,0,1.2-.3,1.106,1.106,0,0,0,.4-.917q0-1.136-1.554-1.136h-.4v2.352Zm8.21-2.79a2.119,2.119,0,0,1,.658,1.594,2.237,2.237,0,0,1-.7,1.694,2.781,2.781,0,0,1-1.873.6h-.518v2.989h-1.156V50.233H385a5.408,5.408,0,0,1,1.435.139A1.635,1.635,0,0,1,387.3,50.871Zm-.857.717a1.964,1.964,0,0,0-1.2-.279h-.359v2.371h.418a1.863,1.863,0,0,0,1.156-.3,1.135,1.135,0,0,0,.379-.937A1.015,1.015,0,0,0,386.439,51.589Zm14.408,2.969,2.332,3.188h-1.415l-2.132-3.069h-.179v3.069H398.3V50.233h1.335a3.279,3.279,0,0,1,2.152.558,2.117,2.117,0,0,1,.737,1.654,2.158,2.158,0,0,1-.458,1.375A2.225,2.225,0,0,1,400.847,54.558Zm-1.076-.9a1.955,1.955,0,0,0,1.2-.3,1.107,1.107,0,0,0,.4-.917q0-1.136-1.554-1.136h-.4v2.352Zm-45.037-3.547,3.428,7.652h-1.255l-.777-1.813H352.94l-.837,1.813h-1.236v-.02l3.547-7.632Zm.917,4.743-1.1-2.511L353.4,54.857Zm14.368-4.743,3.428,7.652H372.19l-.777-1.813h-3.188l-.837,1.813h-1.236v-.02l3.547-7.632Zm.917,4.743-1.1-2.511-1.156,2.511Zm-48.943-4.743,3.428,7.652h-1.255l-.777-1.813H320.2l-.837,1.813h-1.236v-.02l3.547-7.632Zm.917,4.743-1.1-2.511-1.156,2.511Zm-32.443.578-5.1-5.321h-.359v7.652h1.156V52.545l5.141,5.361h.319V50.253h-1.156Zm25.388,0-5.1-5.321h-.359v7.652h1.156V52.545l5.141,5.361h.319V50.253h-1.156Zm32.742,0-5.1-5.321h-.359v7.652h1.156V52.545l5.141,5.361h.319V50.253H348.6Zm-8.17-4.185a3.85,3.85,0,0,1,0,5.5,3.881,3.881,0,0,1-2.81,1.136,3.963,3.963,0,0,1-2.611-1,3.716,3.716,0,0,1-1.275-2.909,3.676,3.676,0,0,1,1.156-2.71,3.79,3.79,0,0,1,2.77-1.136A3.514,3.514,0,0,1,340.425,51.25Zm-.04,2.75a2.689,2.689,0,0,0-.8-1.993,2.6,2.6,0,0,0-1.953-.8,2.79,2.79,0,0,0-.04,5.58,2.754,2.754,0,0,0,1.973-.8A2.692,2.692,0,0,0,340.385,54Zm55.181-2.75a3.85,3.85,0,0,1,0,5.5,3.881,3.881,0,0,1-2.81,1.136,3.963,3.963,0,0,1-2.611-1,3.716,3.716,0,0,1-1.275-2.909,3.676,3.676,0,0,1,1.156-2.71,3.79,3.79,0,0,1,2.77-1.136A3.487,3.487,0,0,1,395.566,51.25Zm-.02,2.75a2.689,2.689,0,0,0-.8-1.993,2.6,2.6,0,0,0-1.953-.8,2.79,2.79,0,0,0-.04,5.58,2.756,2.756,0,0,0,2.79-2.79ZM327.272,27.6h-2.989l1.056-.578-.02-.02a14.476,14.476,0,0,0-1.594-2.132l-.02-.02-1.036.578-.02.02.02.02c.359.558,1.036,1.634,1.275,2.132h-2.989V24.606h5.082V23.53h-5.082V21.178h5.361v-1.1h-12.1v1.1H319.3V23.51h-4.8v1.076h4.8V27.6h-6.018v1.076h13.989V27.6Zm-11.8-9.785h9.585v1.873h1.674V16.754h-5.64v-1.3l-1.614-.259h-.02v1.574h-5.64V19.7h1.674V17.811Zm16.441,0h9.326v1.873h1.674V16.754H337.4v-1.3l-1.614-.259h-.02v1.574h-5.52V19.7h1.674V17.811Zm1.156,4.006H329.5V20.76h4.185c.4-.717.757-1.435,1.116-2.192v-.02h.02l1.594.478-.02.02c-.3.578-.618,1.156-.957,1.714h8.17v1.076H340.9a9.757,9.757,0,0,1-2.531,3.786c1.674.658,3.388,1.375,4.823,2.033h.02l-.02.02-.757,1.455h-.02c-1.375-.678-3.308-1.574-5.341-2.491a1.724,1.724,0,0,0-.2.139,15.435,15.435,0,0,1-6.935,2.252h-.02v-.02l-.359-1.056h.02a17.086,17.086,0,0,0,6.038-1.973c-1-.438-1.993-.877-2.929-1.275h0l-1.136-.478h0l-.02-.02.02-.02C332.1,23.37,332.613,22.573,333.072,21.816Zm.418,1.953c.857.319,2.073.757,3.448,1.275a8.241,8.241,0,0,0,2.292-3.208h-4.384C334.367,22.553,333.908,23.211,333.49,23.769Zm-51.614-6.716.04.04c.578.458,1.116.9,1.853,1.594l.02.02.877-1.076.02-.02-.02-.02a21.22,21.22,0,0,0-2.551-1.893l-.02-.02-.717.957-.02.02.02.02C281.558,16.814,281.717,16.934,281.876,17.053Zm1.395,5.2.917-1.056.02-.02-.02-.02a23.373,23.373,0,0,0-2.511-1.933l-.02-.02-.737.9-.02.02.02.02a30.28,30.28,0,0,1,2.352,2.112Zm-.458,1.156h0a45.706,45.706,0,0,1-1.634,5.281v.02l1.375.458h.02v-.02a38.051,38.051,0,0,0,1.455-5.44v-.02l-1.216-.279Zm4.025-6.237h6.237v1.574h1.515V16.1h-9.267v2.65h1.515Zm-.957,4.6a37.159,37.159,0,0,0,3.408-2.63l.02-.02-.877-1-.02-.02-.02.02a32.647,32.647,0,0,1-3.189,2.69l-.02.02.7.937Zm6.237-2.989-.04-.04c-.259-.179-.538-.379-.8-.578l-.02-.02-.717.857-.02.02.02.02c.319.259.658.5.976.737.7.518,1.415,1.076,2.212,1.774l.02.02.877-1.036.02-.02-.02-.02c-.538-.438-1.1-.8-1.634-1.156A9.428,9.428,0,0,1,292.119,18.787ZM310.672,15.6h-1.515V29.249h1.515Zm-3.308.737H305.85V28.093h1.515ZM300.31,28.592l.937.857.02.02.02-.02a7.423,7.423,0,0,0,2.451-3.707,16.211,16.211,0,0,0,.418-4.285V15.6H302.6v5.879c-.02,2.989-.02,4.643-2.292,7.114Zm-3.029-1.833a34.944,34.944,0,0,0,4.564-1.335h.02l-.12-1.116h-.02c-.578.159-1.036.279-1.455.379V19.9h1.554V18.827H300.27V15.5h-1.495v3.328h-1.515V19.9h1.515v5.161c-.5.12-1.016.219-1.694.359h-.02l.179,1.355Zm-12.874,1.036h0c0,.02.259.458.538.877l.02.02.02-.02a13.011,13.011,0,0,0,4.245-3.627v4.3h1.515v-4.5a12.5,12.5,0,0,0,3.966,3.866h.02l.8-1.156.02-.02-.02-.02a14.394,14.394,0,0,1-4.364-4.025h3.786V22.414h-4.185V20.62H289.25v1.794h-4.185V23.49h3.507A13.756,13.756,0,0,1,284.407,27.794Zm110.262-.717a37.12,37.12,0,0,0,4.424-1.634h.02l-.179-1.2h-.02c-.458.179-.917.339-1.355.478V19.943h1.554V18.867h-1.554V15.3h-1.495v3.567H394.49v1.076h1.574v5.281c-.538.159-1.1.3-1.694.458h-.02l.319,1.395Zm-10.841,2.232h0c1.614-1.475,2.611-3.248,2.611-7.632V16.894h2.471V27.6a1.2,1.2,0,0,0,1.2,1.2h1.554c.319,0,1.335-.139,1.335-1.634V24.546l-1.255-.2h-.02V27a.8.8,0,0,1-.159.538.306.306,0,0,1-.259.1h-.478c-.339,0-.359-.239-.359-.538V15.8h-5.62v5.859c0,3.766-.518,5.062-1.973,6.756l-.02.02.976.877Zm15.105-1.634h0a7.809,7.809,0,0,0,2.77-2.83A10.37,10.37,0,0,0,402.74,21.5h1.375c-.578,3.986-2.013,5.64-3.986,6.915l-.02.02.737.817.02.02h.02a7.9,7.9,0,0,0,3.129-2.67,10.954,10.954,0,0,0,1.694-5.082h.817v5.52a.687.687,0,0,1-.658.737H403.8l.339,1.056v.02h2.411a1.544,1.544,0,0,0,1.515-1.534V20.461H401.9c.359-.2.737-.418,1.116-.638a40.537,40.537,0,0,0,4.364-2.73l.02-.02V15.937h-7.712v1.076h5.062A47.356,47.356,0,0,1,399.97,20.1c-.239.139-.478.279-.678.4h-.02v.976h1.893a8,8,0,0,1-2.929,5.42l-.02.02.717.757Zm-19.769-2.232h0a29.554,29.554,0,0,0,1.594-3.049v6.815h1.475V21.976a20.516,20.516,0,0,1,1.275,1.634l.02.02,1.016-.957.02-.02-.02-.02c-.538-.618-1.315-1.415-1.813-1.873l-.02-.02-.478.438V19.126h1.774V18.05h-1.774V15.28h-1.475v2.77h-2.073v1.076H380.6a28.219,28.219,0,0,1-2.272,5.341v.02l.837.957ZM375.538,16h-7.513v1.1h7.513Zm-4.424,11.219a.723.723,0,0,1-.12.518.655.655,0,0,1-.478.139h-1.475l.359,1.076v.02h1.873a1.451,1.451,0,0,0,1.415-1.435v-6.8h3.567v-1.1h-8.908v1.1h3.786Zm-14.089-1.734H353.5V22.374h3.049V21.338H353.5V18.986h3.288V17.95h-7.872v1.036h3.029v2.332h-2.83v1.036h2.83v3.089H348.7v1.036h8.33Zm2.332,3.188H346.363V15.738h12.993Zm-1.594-11.857h-9.8V27.6h9.8Zm-2.63,5.879-.817.638-.02.02.02.02a18.108,18.108,0,0,1,1.036,1.734l.08.139,1.1-.658.02-.02-.02-.02a11.281,11.281,0,0,0-1.395-1.853Zm8.968-5.779h1.634c-.259,1.335-.6,2.73-.976,4.045l-.02.08h0a5.6,5.6,0,0,1,1.275,3.288c0,1.3-.578,1.435-.817,1.435h-.976l.339,1.036v.02h.877a1.868,1.868,0,0,0,1.375-.6,2.814,2.814,0,0,0,.618-2.212,5.107,5.107,0,0,0-1.475-3.109c.418-1.255.817-2.451,1.236-3.966V15.858h-4.564V29.09H364.1Zm4.882,5.221h0a40.4,40.4,0,0,1-2.132,5.281v.02l1.136.538h.02v-.02a34.969,34.969,0,0,0,2.332-5.42v-.02Zm5.42,0h0l-1.1.458h-.02v.02a48.658,48.658,0,0,1,1.833,5.321v.02l1.475-.538h.02V27.4A37.68,37.68,0,0,0,374.4,22.135Z" transform="translate(-225.261 -12.444)"/>
</svg>
